# xmcd
#
# Track frame offsets:
#	150
#	10748
#	34363
#	53689
#	69628
#	88966
#	111276
#	130966
#	149796
#	171816
#	191211
#	207716
#	221987
#	247475
#
# Disc length: 3649 seconds
#
# Revision: 0
# Processed by: cddbd v1.5.1PL2 Copyright (c) Steve Scherf et al.
# Submitted via: EasyCDDAExtractor 8.1.2.3
#
DISCID=f00e3f0e
DTITLE=Bouchées doubles - Apartheid
DYEAR=2006
DGENRE=Rap
TTITLE0=J'annonce La Couleur
TTITLE1=Contraste
TTITLE2=Tous Les Chemins Menent Au Cim
TTITLE3=Viens
TTITLE4=Negatif
TTITLE5=Nuit Blanche
TTITLE6=En Ton Nom
TTITLE7=Fier Feat Vegeta (DBZ)
TTITLE8=Compagnon De Cellule
TTITLE9=A T'entendre
TTITLE10=Jeu De Dames
TTITLE11=Forca
TTITLE12=Lire Entre Les Lignes Feat Med
TTITLE13=Apartheid
EXTD=
EXTT0=
EXTT1=
EXTT2=
EXTT3=
EXTT4=
EXTT5=
EXTT6=
EXTT7=
EXTT8=
EXTT9=
EXTT10=
EXTT11=
EXTT12=
EXTT13=
PLAYORDER=
